<?xml version="1.0" encoding="utf-8"?><!-- Uploaded to: SVG Repo, www.svgrepo.com, Generator: SVG Repo Mixer Tools -->
<svg fill="#000000" width="800px" height="800px" viewBox="0 0 24 24" id="double-down-sign-square" data-name="Flat Color" xmlns="http://www.w3.org/2000/svg" class="icon flat-color"><rect id="primary" x="2" y="2" width="20" height="20" rx="2" style="fill: rgb(0, 0, 0);"></rect><path id="secondary" d="M12,17a1,1,0,0,1-.71-.29l-3-3a1,1,0,0,1,1.42-1.42L12,14.59l2.29-2.3a1,1,0,0,1,1.42,1.42l-3,3A1,1,0,0,1,12,17Zm.71-5.29,3-3a1,1,0,1,0-1.42-1.42L12,9.59,9.71,7.29A1,1,0,1,0,8.29,8.71l3,3a1,1,0,0,0,1.42,0Z" style="fill: rgb(44, 169, 188);"></path></svg>