<?xml version="1.0" encoding="utf-8"?><!-- Uploaded to: SVG Repo, www.svgrepo.com, Generator: SVG Repo Mixer Tools -->
<svg fill="#000000" width="800px" height="800px" viewBox="0 0 24 24" id="double-up-sign-square" data-name="Flat Color" xmlns="http://www.w3.org/2000/svg" class="icon flat-color"><rect id="primary" x="2" y="2" width="20" height="20" rx="2" style="fill: rgb(0, 0, 0);"></rect><path id="secondary" d="M15,12a1,1,0,0,1-.71-.29L12,9.41l-2.29,2.3a1,1,0,0,1-1.42-1.42l3-3a1,1,0,0,1,1.42,0l3,3a1,1,0,0,1,0,1.42A1,1,0,0,1,15,12Zm.71,4.71a1,1,0,0,0,0-1.42l-3-3a1,1,0,0,0-1.42,0l-3,3a1,1,0,0,0,1.42,1.42L12,14.41l2.29,2.3a1,1,0,0,0,1.42,0Z" style="fill: rgb(44, 169, 188);"></path></svg>