<?xml version="1.0" encoding="utf-8"?><!-- Uploaded to: SVG Repo, www.svgrepo.com, Generator: SVG Repo Mixer Tools -->
<svg fill="#000000" width="800px" height="800px" viewBox="0 0 24 24" id="align-left-square" data-name="Flat Color" xmlns="http://www.w3.org/2000/svg" class="icon flat-color"><rect id="primary" x="2" y="2" width="20" height="20" rx="2" style="fill: rgb(0, 0, 0);"></rect><path id="secondary" d="M17,17H7a1,1,0,0,1,0-2H17a1,1,0,0,1,0,2Zm-2-4H7a1,1,0,0,1,0-2h8a1,1,0,0,1,0,2Zm2-4H7A1,1,0,0,1,7,7H17a1,1,0,0,1,0,2Z" style="fill: rgb(44, 169, 188);"></path></svg>